<?xml version="1.0" encoding="UTF-8" standalone="no"?>
<svg
   height="512"
   id="Layer_1"
   version="1.1"
   viewBox="0 0 511.99999 511.99999"
   width="512"
   xml:space="preserve"
   sodipodi:docname="insta.svg"
   inkscape:version="1.1.1 (3bf5ae0d25, 2021-09-20)"
   xmlns:inkscape="http://www.inkscape.org/namespaces/inkscape"
   xmlns:sodipodi="http://sodipodi.sourceforge.net/DTD/sodipodi-0.dtd"
   xmlns="http://www.w3.org/2000/svg"
   xmlns:svg="http://www.w3.org/2000/svg"><defs
     id="defs13" /><sodipodi:namedview
     id="namedview11"
     pagecolor="#ffffff"
     bordercolor="#999999"
     borderopacity="1"
     inkscape:pageshadow="0"
     inkscape:pageopacity="0"
     inkscape:pagecheckerboard="0"
     showgrid="false"
     inkscape:zoom="1.1208328"
     inkscape:cx="499.18239"
     inkscape:cy="142.3049"
     inkscape:window-width="1920"
     inkscape:window-height="1027"
     inkscape:window-x="-8"
     inkscape:window-y="-8"
     inkscape:window-maximized="1"
     inkscape:current-layer="Layer_1" /><g
     id="g8"
     transform="matrix(10.406362,0,0,10.406504,-38.50354,-54.113821)"
     style="fill:#ffffff"><circle
       cx="28.1"
       cy="30"
       r="4.4000001"
       id="circle2"
       style="fill:#ffffff" /><path
       d="m 33.6,19.2 h -11 c -1.6,0 -3,0.5 -3.9,1.4 -0.9,0.9 -1.4,2.3 -1.4,3.9 v 11 c 0,1.6 0.5,3 1.5,4 1,0.9 2.3,1.4 3.9,1.4 h 10.9 c 1.6,0 3,-0.5 3.9,-1.4 1,-0.9 1.5,-2.3 1.5,-3.9 v -11 c 0,-1.6 -0.5,-2.9 -1.4,-3.9 -1,-1 -2.3,-1.5 -4,-1.5 z m -5.5,17.6 c -3.8,0 -6.8,-3.1 -6.8,-6.8 0,-3.8 3.1,-6.8 6.8,-6.8 3.7,0 6.9,3 6.9,6.8 0,3.8 -3.1,6.8 -6.9,6.8 z m 7.1,-12.3 c -0.9,0 -1.6,-0.7 -1.6,-1.6 0,-0.9 0.7,-1.6 1.6,-1.6 0.9,0 1.6,0.7 1.6,1.6 0,0.9 -0.7,1.6 -1.6,1.6 z"
       id="path4"
       style="fill:#ffffff" /><path
       d="m 28.3,5.2 c -13.6,0 -24.6,11 -24.6,24.6 0,13.6 11,24.6 24.6,24.6 13.6,0 24.6,-11 24.6,-24.6 C 53,16.2 41.9,5.2 28.3,5.2 Z m 13.1,30.4 c 0,2.3 -0.8,4.3 -2.2,5.7 -1.4,1.4 -3.4,2.1 -5.6,2.1 H 22.7 c -2.2,0 -4.2,-0.7 -5.6,-2.1 -1.5,-1.4 -2.2,-3.4 -2.2,-5.7 v -11 c 0,-4.6 3.1,-7.8 7.8,-7.8 h 11 c 2.3,0 4.2,0.8 5.6,2.2 1.4,1.4 2.1,3.3 2.1,5.6 z"
       id="path6"
       style="fill:#ffffff" /></g></svg>
