<?xml version="1.0" encoding="UTF-8" standalone="no"?>
<svg
   height="512"
   id="Layer_1"
   version="1.1"
   viewBox="0 0 511.99999 511.99999"
   width="512"
   xml:space="preserve"
   sodipodi:docname="reddit.svg"
   inkscape:version="1.1.1 (3bf5ae0d25, 2021-09-20)"
   xmlns:inkscape="http://www.inkscape.org/namespaces/inkscape"
   xmlns:sodipodi="http://sodipodi.sourceforge.net/DTD/sodipodi-0.dtd"
   xmlns="http://www.w3.org/2000/svg"
   xmlns:svg="http://www.w3.org/2000/svg"><defs
     id="defs23" /><sodipodi:namedview
     id="namedview21"
     pagecolor="#ffffff"
     bordercolor="#999999"
     borderopacity="1"
     inkscape:pageshadow="0"
     inkscape:pageopacity="0"
     inkscape:pagecheckerboard="0"
     showgrid="false"
     width="512px"
     inkscape:zoom="1.5852815"
     inkscape:cx="243.80528"
     inkscape:cy="188.29463"
     inkscape:window-width="1920"
     inkscape:window-height="1027"
     inkscape:window-x="-8"
     inkscape:window-y="-8"
     inkscape:window-maximized="1"
     inkscape:current-layer="Layer_1" /><g
     id="g6"
     transform="matrix(10.384932,0,0,10.384932,-38.378555,-41.979011)"
     style="fill:#ffffff"><g
       id="g4"
       style="fill:#ffffff"><path
         d="m 28.3467,4.0423 c -13.6144,0 -24.6511,11.0366 -24.6511,24.6511 0,13.6145 11.0367,24.6511 24.6511,24.6511 13.6145,0 24.6511,-11.0366 24.6511,-24.6511 0,-13.6145 -11.0366,-24.6511 -24.6511,-24.6511 z m 14.5242,27.7839 c 0.0613,0.3643 0.0958,0.7339 0.0958,1.1089 0,5.4205 -6.5707,9.8308 -14.6479,9.8308 -8.0773,0 -14.6479,-4.4103 -14.6479,-9.8308 0,-0.3862 0.037,-0.7666 0.1019,-1.1414 -1.0677,-0.6891 -1.7271,-1.8701 -1.7271,-3.1509 0,-2.0707 1.6848,-3.7554 3.7554,-3.7554 0.9107,0 1.7702,0.3252 2.4523,0.9155 2.4941,-1.5862 5.8183,-2.5818 9.4824,-2.6794 l 2.6357,-9.0018 6.6173,1.2294 c 0,0 0.0012,7e-4 0.002,9e-4 0.3861,-0.6873 1.1003,-1.1713 1.9441,-1.2142 1.3068,-0.0668 2.4241,0.9421 2.4908,2.249 0.0667,1.3068 -0.9422,2.4242 -2.2491,2.4908 -1.3069,0.0666 -2.4242,-0.9423 -2.4909,-2.2491 -0.0023,-0.0449 0.0064,-0.0876 0.0067,-0.1322 l -5.4913,-1.0204 -2.2365,7.6498 c 3.6552,0.1079 6.9689,1.1093 9.4523,2.6984 0.6858,-0.6033 1.5543,-0.9365 2.4755,-0.9365 2.0707,0 3.7554,1.6847 3.7554,3.7554 -10e-5,1.3008 -0.6798,2.4994 -1.7769,3.1832 z"
         id="path2"
         style="fill:#ffffff" /></g></g><g
     id="g10"
     transform="matrix(10.384932,0,0,10.384932,-38.378555,-41.979011)"
     style="fill:#ffffff"><path
       d="m 32.9098,36.6217 c -0.0142,0.0135 -1.4175,1.3959 -4.618,1.3959 -3.1459,0 -4.4017,-1.3351 -4.4355,-1.3719 -0.2126,-0.2439 -0.5819,-0.2709 -0.8283,-0.0609 -0.2476,0.2114 -0.2765,0.5845 -0.0645,0.832 0.062,0.0725 1.5667,1.7805 5.3282,1.7805 3.7424,0 5.3983,-1.6847 5.4672,-1.7566 0.2236,-0.2341 0.215,-0.6028 -0.0166,-0.8289 -0.2329,-0.2266 -0.6058,-0.2211 -0.8325,0.0099 z"
       id="path8"
       style="fill:#ffffff" /></g><g
     id="g14"
     transform="matrix(10.384932,0,0,10.384932,-38.378555,-41.979011)"
     style="fill:#ffffff"><circle
       cx="33.299599"
       cy="31.1989"
       r="2.3076"
       id="circle12"
       style="fill:#ffffff" /></g><g
     id="g18"
     transform="matrix(10.384932,0,0,10.384932,-38.378555,-41.979011)"
     style="fill:#ffffff"><circle
       cx="23.6654"
       cy="31.1989"
       r="2.3076"
       id="circle16"
       style="fill:#ffffff" /></g></svg>
