<?xml version="1.0" encoding="UTF-8" standalone="no"?>
<svg
   enable-background="new 0 0 56.693 56.693"
   height="512"
   id="Layer_1"
   version="1.1"
   viewBox="0 0 511.99999 511.99999"
   width="512"
   xml:space="preserve"
   sodipodi:docname="twitter.svg"
   inkscape:version="1.1.1 (3bf5ae0d25, 2021-09-20)"
   xmlns:inkscape="http://www.inkscape.org/namespaces/inkscape"
   xmlns:sodipodi="http://sodipodi.sourceforge.net/DTD/sodipodi-0.dtd"
   xmlns="http://www.w3.org/2000/svg"
   xmlns:svg="http://www.w3.org/2000/svg"><defs
     id="defs7" /><sodipodi:namedview
     id="namedview5"
     pagecolor="#ffffff"
     bordercolor="#999999"
     borderopacity="1"
     inkscape:pageshadow="0"
     inkscape:pageopacity="0"
     inkscape:pagecheckerboard="0"
     showgrid="false"
     inkscape:zoom="1.1209712"
     inkscape:cx="261.82653"
     inkscape:cy="343.89822"
     inkscape:window-width="1920"
     inkscape:window-height="1027"
     inkscape:window-x="-8"
     inkscape:window-y="-8"
     inkscape:window-maximized="1"
     inkscape:current-layer="Layer_1" /><path
     d="M 256.0104,0 C 114.61988,0 0,114.64068 0,256.0104 0,397.40091 114.61988,512 256.0104,512 397.40091,512 512,397.40091 512,256.0104 512,114.64068 397.39051,0 256.0104,0 Z m 128.95646,204.39246 c 0.13515,2.76543 0.18714,5.54126 0.18714,8.34828 0,85.26056 -64.89409,183.55816 -183.55816,183.55816 -36.42885,0 -70.35218,-10.67707 -98.90058,-28.97466 5.05263,0.59259 10.17803,0.89408 15.38661,0.89408 30.23262,0 58.05328,-10.31319 80.12476,-27.61273 -28.22612,-0.53022 -52.04419,-19.19168 -60.25731,-44.81872 3.92982,0.76934 7.97401,1.154 12.13255,1.154 5.88434,0 11.58155,-0.76933 16.99805,-2.25601 -29.52566,-5.92593 -51.76348,-32.02079 -51.76348,-63.25146 0,-0.2807 0,-0.55101 0.0104,-0.83171 8.69135,4.83431 18.64067,7.73489 29.22417,8.07797 -17.32034,-11.59194 -28.70436,-31.31384 -28.70436,-53.7076 0,-11.82066 3.18129,-22.91358 8.73295,-32.43665 31.82326,39.02794 79.36582,64.71735 132.99025,67.39961 -1.10201,-4.70955 -1.67381,-9.64782 -1.67381,-14.70045 0,-35.61794 28.88109,-64.50942 64.51981,-64.50942 18.55751,0 35.31644,7.83885 47.08512,20.36647 14.70046,-2.87979 28.50683,-8.26511 40.97206,-15.65692 -4.8343,15.07472 -15.05393,27.7167 -28.38206,35.69071 13.06822,-1.55946 25.50227,-5.03184 37.06303,-10.15725 -8.62898,12.96426 -19.57635,24.32749 -32.18714,33.4243 z"
     id="path2"
     style="stroke-width:10.3964;fill:#ffffff" /></svg>
