<?xml version="1.0" encoding="UTF-8" standalone="no"?>
<svg
   enable-background="new 0 0 32 32"
   version="1.1"
   viewBox="0 0 512 512"
   xml:space="preserve"
   id="svg13"
   sodipodi:docname="youtube.svg"
   width="512"
   height="512"
   inkscape:version="1.1.1 (3bf5ae0d25, 2021-09-20)"
   xmlns:inkscape="http://www.inkscape.org/namespaces/inkscape"
   xmlns:sodipodi="http://sodipodi.sourceforge.net/DTD/sodipodi-0.dtd"
   xmlns="http://www.w3.org/2000/svg"
   xmlns:svg="http://www.w3.org/2000/svg"><defs
     id="defs17" /><sodipodi:namedview
     id="namedview15"
     pagecolor="#ffffff"
     bordercolor="#999999"
     borderopacity="1"
     inkscape:pageshadow="0"
     inkscape:pageopacity="0"
     inkscape:pagecheckerboard="0"
     showgrid="false"
     width="512px"
     inkscape:zoom="1.4042969"
     inkscape:cx="-101.47427"
     inkscape:cy="-26.703755"
     inkscape:window-width="1920"
     inkscape:window-height="1027"
     inkscape:window-x="-8"
     inkscape:window-y="-8"
     inkscape:window-maximized="1"
     inkscape:current-layer="svg13" /><g
     id="OUTLINE_copy_2"
     transform="scale(16)"
     style="fill:#ffffff"><g
       id="g10"
       style="fill:#ffffff"><g
         id="g4"
         style="fill:#ffffff"><polygon
           points="19.262,16 13.83,12.741 13.83,19.259 "
           id="polygon2"
           style="fill:#ffffff" /></g><g
         id="g8"
         style="fill:#ffffff"><path
           d="M 16,0 C 7.164,0 0,7.163 0,16 0,24.837 7.164,32 16,32 24.836,32 32,24.836 32,16 32,7.164 24.836,0 16,0 Z m 8.688,16.701 c 0,1.5 -0.174,3 -0.174,3 0,0 -0.17,1.278 -0.69,1.839 -0.661,0.738 -1.401,0.742 -1.741,0.786 C 19.651,22.512 16,22.518 16,22.518 c 0,0 -4.518,-0.044 -5.908,-0.186 C 9.705,22.255 8.838,22.277 8.176,21.54 7.655,20.978 7.486,19.701 7.486,19.701 c 0,0 -0.174,-1.499 -0.174,-3 v -1.406 c 0,-1.5 0.174,-2.999 0.174,-2.999 0,0 0.17,-1.278 0.69,-1.841 C 8.837,9.716 9.577,9.712 9.917,9.67 12.348,9.482 15.996,9.482 15.996,9.482 h 0.008 c 0,0 3.648,0 6.079,0.188 0.339,0.042 1.08,0.046 1.741,0.784 0.521,0.563 0.69,1.841 0.69,1.841 0,0 0.174,1.5 0.174,3 z"
           id="path6"
           style="fill:#ffffff" /></g></g></g></svg>
